# xmcd
#
# Track frame offsets:
#	150
#	15307
#	27768
#	41113
#	54430
#	65220
#	87149
#	102356
#	118643
#	128238
#	138502
#	152975
#
# Disc length: 2280 seconds
#
# Revision: 1
# Processed by: cddbd v1.5.2PL0 Copyright (c) Steve Scherf et al.
# Submitted via: audiograbber 1.83.01
#
DISCID=a008e60c
DTITLE=Merle Haggard - Okie From Muskogee - Live Classics
DYEAR=2000
DGENRE=Country
TTITLE0=Okie From Muskogee
TTITLE1=If You Want To Be My Woman
TTITLE2=Games People Play
TTITLE3=Workin Man's Blues
TTITLE4=Corrine Corrina
TTITLE5=The Bottle Let Me Down
TTITLE6=San Antonio Rose
TTITLE7=Ramblin' Fever
TTITLE8=Take Me Back To Tulsa
TTITLE9=Ida Red
TTITLE10=Folsom Prison Blues
TTITLE11=Footlights
EXTD=
EXTT0=
EXTT1=
EXTT2=
EXTT3=
EXTT4=
EXTT5=
EXTT6=
EXTT7=
EXTT8=
EXTT9=
EXTT10=
EXTT11=
PLAYORDER=
